<?xml version="1.0" encoding="UTF-8"?>
<!DOCTYPE svg PUBLIC "-//W3C//DTD SVG 1.1//EN" "http://www.w3.org/Graphics/SVG/1.1/DTD/svg11.dtd">
<!-- Creator: CorelDRAW -->
<svg xmlns="http://www.w3.org/2000/svg" xml:space="preserve" width="1.66666in" height="1.66666in" version="1.1" style="shape-rendering:geometricPrecision; text-rendering:geometricPrecision; image-rendering:optimizeQuality; fill-rule:evenodd; clip-rule:evenodd"
viewBox="0 0 1666.66 1666.66"
 xmlns:xlink="http://www.w3.org/1999/xlink"
 xmlns:xodm="http://www.corel.com/coreldraw/odm/2003">
 <defs>
  <style type="text/css">
   <![CDATA[
    .str0 {stroke:#0685FF;stroke-width:33.33;stroke-miterlimit:2.61313}
    .fil1 {fill:#055CB4}
    .fil2 {fill:#0685FF}
    .fil0 {fill:white}
   ]]>
  </style>
 </defs>
 <g id="Layer_x0020_1">
  <metadata id="CorelCorpID_0Corel-Layer"/>
  <rect class="fil0 str0" x="27.44" y="27.44" width="1611.79" height="1611.79" rx="252.96" ry="252.96"/>
  <g id="_2347677807696">
   <path class="fil1" d="M777.19 989.96c0,0 4.89,3 8.48,4.83 3.01,1.53 6.44,2.72 10.08,3.42 16.24,3.11 28.64,-4.12 38.35,-14.88 0,0 66.96,-70.27 66.96,-70.27 11.07,-12.22 60.76,-62.21 65.51,-70.91 3.41,-6.24 5.33,-13.85 4.62,-21.96 -0.69,-7.86 -4.04,-14.33 -7.54,-19.48 -5.15,-7.59 -13.2,-10.24 -15.05,-12.21 -26.11,-7.12 -36.07,0.94 -48.31,14.53 -32.2,33.74 -97.59,102.23 -97.59,102.23 0,0 -41.44,-41.93 -41.44,-41.93 -36.73,-36.96 -90.33,14.35 -53.93,53.94 12.28,12.73 69.86,72.69 69.86,72.69z"/>
   <path class="fil1" d="M833.26 1108.36c-121.06,0 -219.17,-96.69 -219.17,-215.96 0,-119.27 98.12,-215.96 219.17,-215.96 121.05,0 219.17,96.69 219.17,215.96 0,119.28 -98.13,215.96 -219.17,215.96zm-319.63 -215.96c0,73.68 25.68,141.45 68.69,195.09l2.82 3.46 231.94 285.15c8.88,10.93 23.34,11.09 32.02,0.41l231.84 -285.02c0.28,-0.33 0.55,-0.67 0.83,-1.01 0.14,-0.17 0.28,-0.34 0.42,-0.51 44.22,-54.02 70.7,-122.75 70.7,-197.57 0,-173.94 -143.1,-314.94 -319.63,-314.94 -176.53,0 -319.63,141 -319.63,314.94z"/>
   <polygon class="fil2" points="522.28,1153.54 235.12,1153.54 235.12,553.24 501.13,553.24 501.13,379.93 649,379.93 649,282.25 399.28,282.25 399.28,452.52 134.49,452.52 134.49,1255.28 605.04,1255.28 "/>
   <polygon class="fil2" points="1144.24,1153.54 1061.49,1255.28 1532.17,1255.28 1532.17,452.52 1270.88,452.52 1270.88,282.25 737.75,282.25 737.75,379.93 1168.63,379.93 1168.63,553.24 1431.39,553.24 1431.39,1153.54 "/>
   <circle class="fil1" cx="1302.89" cy="700.46" r="61.32"/>
  </g>
 </g>
</svg>
